<?xml version="1.0" encoding="UTF-8" standalone="no"?><svg xmlns="http://www.w3.org/2000/svg" xmlns:xlink="http://www.w3.org/1999/xlink" contentScriptType="application/ecmascript" contentStyleType="text/css" height="283px" preserveAspectRatio="none" style="width:568px;height:283px;" version="1.1" viewBox="0 0 568 283" width="568px" zoomAndPan="magnify"><defs><filter height="300%" id="f821egju0b274" width="300%" x="-1" y="-1"><feGaussianBlur result="blurOut" stdDeviation="2.0"/><feColorMatrix in="blurOut" result="blurOut2" type="matrix" values="0 0 0 0 0 0 0 0 0 0 0 0 0 0 0 0 0 0 .4 0"/><feOffset dx="4.0" dy="4.0" in="blurOut2" result="blurOut3"/><feBlend in="SourceGraphic" in2="blurOut3" mode="normal"/></filter></defs><g><!--cluster java.lang--><polygon fill="#FFFFFF" filter="url(#f821egju0b274)" points="226,16,301,16,308,38.2969,334,38.2969,334,112,226,112,226,16" style="stroke: #000000; stroke-width: 2.0;"/><line style="stroke: #000000; stroke-width: 2.0;" x1="226" x2="308" y1="38.2969" y2="38.2969"/><text fill="#000000" font-family="sans-serif" font-size="14" font-weight="bold" lengthAdjust="spacingAndGlyphs" textLength="69" x="230" y="30.9951">java.lang</text><!--cluster de.fhro.inf.prg3.a10.kitchen.workers--><polygon fill="#FFFFFF" filter="url(#f821egju0b274)" points="14,137,313,137,320,159.2969,546,159.2969,546,271,14,271,14,137" style="stroke: #000000; stroke-width: 2.0;"/><line style="stroke: #000000; stroke-width: 2.0;" x1="14" x2="320" y1="159.2969" y2="159.2969"/><text fill="#000000" font-family="sans-serif" font-size="14" font-weight="bold" lengthAdjust="spacingAndGlyphs" textLength="293" x="18" y="151.9951">de.fhro.inf.prg3.a10.kitchen.workers</text><!--class Runnable--><rect fill="#FEFECE" filter="url(#f821egju0b274)" height="60.8047" id="Runnable" style="stroke: #A80036; stroke-width: 1.5;" width="91" x="234.5" y="43"/><ellipse cx="249.5" cy="59" fill="#B4A7E5" rx="11" ry="11" style="stroke: #A80036; stroke-width: 1.0;"/><path d="M245.4219,54.7656 L245.4219,52.6094 L252.8125,52.6094 L252.8125,54.7656 L250.3438,54.7656 L250.3438,62.8438 L252.8125,62.8438 L252.8125,65 L245.4219,65 L245.4219,62.8438 L247.8906,62.8438 L247.8906,54.7656 L245.4219,54.7656 Z "/><text fill="#000000" font-family="sans-serif" font-size="12" font-style="italic" lengthAdjust="spacingAndGlyphs" textLength="59" x="263.5" y="63.1543">Runnable</text><line style="stroke: #A80036; stroke-width: 1.5;" x1="235.5" x2="324.5" y1="75" y2="75"/><line style="stroke: #A80036; stroke-width: 1.5;" x1="235.5" x2="324.5" y1="83" y2="83"/><text fill="#000000" font-family="sans-serif" font-size="11" lengthAdjust="spacingAndGlyphs" textLength="31" x="240.5" y="97.2104">run();</text><!--class Cook--><rect fill="#FEFECE" filter="url(#f821egju0b274)" height="99.2188" id="Cook" style="stroke: #A80036; stroke-width: 1.5;" width="515" x="22.5" y="164"/><ellipse cx="254.75" cy="180" fill="#ADD1B2" rx="11" ry="11" style="stroke: #A80036; stroke-width: 1.0;"/><path d="M257.7188,185.6406 Q257.1406,185.9375 256.5,186.0859 Q255.8594,186.2344 255.1563,186.2344 Q252.6563,186.2344 251.3359,184.5859 Q250.0156,182.9375 250.0156,179.8125 Q250.0156,176.6875 251.3359,175.0313 Q252.6563,173.375 255.1563,173.375 Q255.8594,173.375 256.5078,173.5313 Q257.1563,173.6875 257.7188,173.9844 L257.7188,176.7031 Q257.0938,176.125 256.5,175.8516 Q255.9063,175.5781 255.2813,175.5781 Q253.9375,175.5781 253.25,176.6484 Q252.5625,177.7188 252.5625,179.8125 Q252.5625,181.9063 253.25,182.9766 Q253.9375,184.0469 255.2813,184.0469 Q255.9063,184.0469 256.5,183.7734 Q257.0938,183.5 257.7188,182.9219 L257.7188,185.6406 Z "/><ellipse cx="280.25" cy="179.5" fill="#84BE84" rx="3" ry="3" style="stroke: #038048; stroke-width: 1.0;"/><text fill="#000000" font-family="sans-serif" font-size="12" lengthAdjust="spacingAndGlyphs" textLength="31" x="286.25" y="184.1543">Cook</text><line style="stroke: #A80036; stroke-width: 1.5;" x1="23.5" x2="536.5" y1="196" y2="196"/><rect fill="none" height="6" style="stroke: #C82930; stroke-width: 1.0;" width="6" x="30.5" y="204.9023"/><text fill="#000000" font-family="sans-serif" font-size="11" lengthAdjust="spacingAndGlyphs" textLength="74" x="42.5" y="210.2104">name: String</text><rect fill="none" height="6" style="stroke: #C82930; stroke-width: 1.0;" width="6" x="30.5" y="217.707"/><text fill="#000000" font-family="sans-serif" font-size="11" lengthAdjust="spacingAndGlyphs" textLength="210" x="42.5" y="223.0151">progressReporter: ProgressReporter</text><rect fill="none" height="6" style="stroke: #C82930; stroke-width: 1.0;" width="6" x="30.5" y="230.5117"/><text fill="#000000" font-family="sans-serif" font-size="11" lengthAdjust="spacingAndGlyphs" textLength="153" x="42.5" y="235.8198">kitchenHatch: KitchenHatch</text><line style="stroke: #A80036; stroke-width: 1.5;" x1="23.5" x2="536.5" y1="242.4141" y2="242.4141"/><ellipse cx="33.5" cy="254.3164" fill="#84BE84" rx="3" ry="3" style="stroke: #038048; stroke-width: 1.0;"/><text fill="#000000" font-family="sans-serif" font-size="11" lengthAdjust="spacingAndGlyphs" textLength="489" x="42.5" y="256.6245">Cook(name: String, kitchenHatch: KitchenHatch, progressReporter: ProgressReporter)</text><!--link Runnable to Cook--><path d="M280,124.5882 C280,137.4009 280,151.1275 280,163.868 " fill="none" id="Runnable-Cook" style="stroke: #A80036; stroke-width: 1.0; stroke-dasharray: 7.0,7.0;"/><polygon fill="none" points="273.0001,124.2236,280,104.2236,287.0001,124.2236,273.0001,124.2236" style="stroke: #A80036; stroke-width: 1.0;"/><!--
@startuml Cook

package java.lang {
    interface Runnable {
        run();
    }
}

package de.fhro.inf.prg3.a10.kitchen.workers {
    +class Cook implements Runnable {
        -name: String
        -progressReporter: ProgressReporter
        -kitchenHatch: KitchenHatch
        +Cook(name: String, kitchenHatch: KitchenHatch, progressReporter: ProgressReporter)
    }
}

@enduml

PlantUML version 1.2017.19(Sun Nov 12 12:46:22 CET 2017)
(GPL source distribution)
Java Runtime: OpenJDK Runtime Environment
JVM: OpenJDK 64-Bit Server VM
Java Version: 1.8.0_144-b01
Operating System: Linux
OS Version: 4.14.4-1-ARCH
Default Encoding: UTF-8
Language: en
Country: US
--></g></svg>