<?xml version="1.0" encoding="UTF-8" standalone="no"?><svg xmlns="http://www.w3.org/2000/svg" xmlns:xlink="http://www.w3.org/1999/xlink" contentScriptType="application/ecmascript" contentStyleType="text/css" height="334px" preserveAspectRatio="none" style="width:404px;height:334px;" version="1.1" viewBox="0 0 404 334" width="404px" zoomAndPan="magnify"><defs><filter height="300%" id="fdt548iussaeb" width="300%" x="-1" y="-1"><feGaussianBlur result="blurOut" stdDeviation="2.0"/><feColorMatrix in="blurOut" result="blurOut2" type="matrix" values="0 0 0 0 0 0 0 0 0 0 0 0 0 0 0 0 0 0 .4 0"/><feOffset dx="4.0" dy="4.0" in="blurOut2" result="blurOut3"/><feBlend in="SourceGraphic" in2="blurOut3" mode="normal"/></filter></defs><g><!--cluster de.fhro.inf.prg3.a10.kitchen--><polygon fill="#FFFFFF" filter="url(#fdt548iussaeb)" points="14,16,242,16,249,38.2969,382,38.2969,382,322,14,322,14,16" style="stroke: #000000; stroke-width: 1.5;"/><line style="stroke: #000000; stroke-width: 1.5;" x1="14" x2="249" y1="38.2969" y2="38.2969"/><text fill="#000000" font-family="sans-serif" font-size="14" font-weight="bold" lengthAdjust="spacingAndGlyphs" textLength="222" x="18" y="30.9951">de.fhro.inf.prg3.a10.kitchen</text><!--class KitchenHatch--><rect fill="#FEFECE" filter="url(#fdt548iussaeb)" height="150.4375" id="KitchenHatch" style="stroke: #A80036; stroke-width: 1.5;" width="218" x="89" y="43"/><ellipse cx="146.25" cy="59" fill="#B4A7E5" rx="11" ry="11" style="stroke: #A80036; stroke-width: 1.0;"/><path d="M142.1719,54.7656 L142.1719,52.6094 L149.5625,52.6094 L149.5625,54.7656 L147.0938,54.7656 L147.0938,62.8438 L149.5625,62.8438 L149.5625,65 L142.1719,65 L142.1719,62.8438 L144.6406,62.8438 L144.6406,54.7656 L142.1719,54.7656 Z "/><ellipse cx="171.75" cy="58.5" fill="#84BE84" rx="3" ry="3" style="stroke: #038048; stroke-width: 1.0;"/><text fill="#000000" font-family="sans-serif" font-size="12" font-style="italic" lengthAdjust="spacingAndGlyphs" textLength="84" x="177.75" y="63.1543">KitchenHatch</text><line style="stroke: #A80036; stroke-width: 1.5;" x1="90" x2="306" y1="75" y2="75"/><line style="stroke: #A80036; stroke-width: 1.5;" x1="90" x2="306" y1="83" y2="83"/><text fill="#000000" font-family="sans-serif" font-size="11" lengthAdjust="spacingAndGlyphs" textLength="109" x="95" y="97.2104">getMaxDishes(): int</text><text fill="#000000" font-family="sans-serif" font-size="11" lengthAdjust="spacingAndGlyphs" textLength="114" x="95" y="110.0151">getOrderCount(): int</text><text fill="#000000" font-family="sans-serif" font-size="11" lengthAdjust="spacingAndGlyphs" textLength="120" x="95" y="122.8198">getDishesCount(): int</text><text fill="#000000" font-family="sans-serif" font-size="11" lengthAdjust="spacingAndGlyphs" textLength="131" x="95" y="135.6245">dequeueOrder(): Order</text><text fill="#000000" font-family="sans-serif" font-size="11" lengthAdjust="spacingAndGlyphs" textLength="206" x="95" y="148.4292">dequeueOrder(timeout: long): Order</text><text fill="#000000" font-family="sans-serif" font-size="11" lengthAdjust="spacingAndGlyphs" textLength="115" x="95" y="161.2339">dequeueDish(): Dish</text><text fill="#000000" font-family="sans-serif" font-size="11" lengthAdjust="spacingAndGlyphs" textLength="190" x="95" y="174.0386">dequeueDish(timeout: long): Dish</text><text fill="#000000" font-family="sans-serif" font-size="11" lengthAdjust="spacingAndGlyphs" textLength="139" x="95" y="186.8433">enqueueDish(dish: Dish)</text><!--class KitchenHatchImpl--><rect fill="#FEFECE" filter="url(#fdt548iussaeb)" height="60.8047" id="KitchenHatchImpl" style="stroke: #A80036; stroke-width: 1.5;" width="351" x="22.5" y="253"/><ellipse cx="134.25" cy="269" fill="#ADD1B2" rx="11" ry="11" style="stroke: #A80036; stroke-width: 1.0;"/><path d="M137.2188,274.6406 Q136.6406,274.9375 136,275.0859 Q135.3594,275.2344 134.6563,275.2344 Q132.1563,275.2344 130.8359,273.5859 Q129.5156,271.9375 129.5156,268.8125 Q129.5156,265.6875 130.8359,264.0313 Q132.1563,262.375 134.6563,262.375 Q135.3594,262.375 136.0078,262.5313 Q136.6563,262.6875 137.2188,262.9844 L137.2188,265.7031 Q136.5938,265.125 136,264.8516 Q135.4063,264.5781 134.7813,264.5781 Q133.4375,264.5781 132.75,265.6484 Q132.0625,266.7188 132.0625,268.8125 Q132.0625,270.9063 132.75,271.9766 Q133.4375,273.0469 134.7813,273.0469 Q135.4063,273.0469 136,272.7734 Q136.5938,272.5 137.2188,271.9219 L137.2188,274.6406 Z "/><ellipse cx="159.75" cy="268.5" fill="#84BE84" rx="3" ry="3" style="stroke: #038048; stroke-width: 1.0;"/><text fill="#000000" font-family="sans-serif" font-size="12" lengthAdjust="spacingAndGlyphs" textLength="108" x="165.75" y="273.1543">KitchenHatchImpl</text><line style="stroke: #A80036; stroke-width: 1.5;" x1="23.5" x2="372.5" y1="285" y2="285"/><line style="stroke: #A80036; stroke-width: 1.5;" x1="23.5" x2="372.5" y1="293" y2="293"/><ellipse cx="33.5" cy="304.9023" fill="#84BE84" rx="3" ry="3" style="stroke: #038048; stroke-width: 1.0;"/><text fill="#000000" font-family="sans-serif" font-size="11" lengthAdjust="spacingAndGlyphs" textLength="325" x="42.5" y="307.2104">KitchenHatchImpl(maxMeals: int, orders: Deque&lt;Order&gt;)</text><!--link KitchenHatch to KitchenHatchImpl--><path d="M198,213.2463 C198,227.4561 198,241.1626 198,252.6376 " fill="none" id="KitchenHatch-KitchenHatchImpl" style="stroke: #A80036; stroke-width: 1.0; stroke-dasharray: 7.0,7.0;"/><polygon fill="none" points="191.0001,213.0023,198,193.0023,205.0001,213.0023,191.0001,213.0023" style="stroke: #A80036; stroke-width: 1.0;"/><!--
@startuml KitchenHatch

package de.fhro.inf.prg3.a10.kitchen {
    +interface KitchenHatch {
        getMaxDishes(): int
        getOrderCount(): int
        getDishesCount(): int
        dequeueOrder(): Order
        dequeueOrder(timeout: long): Order
        dequeueDish(): Dish
        dequeueDish(timeout: long): Dish
        enqueueDish(dish: Dish)
    }

    +class KitchenHatchImpl implements KitchenHatch {
        +KitchenHatchImpl(maxMeals: int, orders: Deque<Order>)
    }
}

@enduml

PlantUML version 1.2017.20(Mon Dec 11 17:57:05 CET 2017)
(GPL source distribution)
Java Runtime: OpenJDK Runtime Environment
JVM: OpenJDK 64-Bit Server VM
Java Version: 1.8.0_144-b01
Operating System: Linux
OS Version: 4.14.4-1-ARCH
Default Encoding: UTF-8
Language: en
Country: US
--></g></svg>