<?xml version="1.0" encoding="UTF-8" standalone="no"?><svg xmlns="http://www.w3.org/2000/svg" xmlns:xlink="http://www.w3.org/1999/xlink" contentScriptType="application/ecmascript" contentStyleType="text/css" height="334px" preserveAspectRatio="none" style="width:416px;height:334px;" version="1.1" viewBox="0 0 416 334" width="416px" zoomAndPan="magnify"><defs><filter height="300%" id="f1ef3m4t1mu8rx" width="300%" x="-1" y="-1"><feGaussianBlur result="blurOut" stdDeviation="2.0"/><feColorMatrix in="blurOut" result="blurOut2" type="matrix" values="0 0 0 0 0 0 0 0 0 0 0 0 0 0 0 0 0 0 .4 0"/><feOffset dx="4.0" dy="4.0" in="blurOut2" result="blurOut3"/><feBlend in="SourceGraphic" in2="blurOut3" mode="normal"/></filter></defs><g><!--cluster de.fhro.inf.prg3.a10.kitchen--><polygon fill="#FFFFFF" filter="url(#f1ef3m4t1mu8rx)" points="14,16,242,16,249,38.2969,394,38.2969,394,322,14,322,14,16" style="stroke: #000000; stroke-width: 2.0;"/><line style="stroke: #000000; stroke-width: 2.0;" x1="14" x2="249" y1="38.2969" y2="38.2969"/><text fill="#000000" font-family="sans-serif" font-size="14" font-weight="bold" lengthAdjust="spacingAndGlyphs" textLength="222" x="18" y="30.9951">de.fhro.inf.prg3.a10.kitchen</text><!--class KitchenHatch--><rect fill="#FEFECE" filter="url(#f1ef3m4t1mu8rx)" height="150.4375" id="KitchenHatch" style="stroke: #A80036; stroke-width: 1.5;" width="218" x="95" y="43"/><ellipse cx="152.25" cy="59" fill="#B4A7E5" rx="11" ry="11" style="stroke: #A80036; stroke-width: 1.0;"/><path d="M148.1719,54.7656 L148.1719,52.6094 L155.5625,52.6094 L155.5625,54.7656 L153.0938,54.7656 L153.0938,62.8438 L155.5625,62.8438 L155.5625,65 L148.1719,65 L148.1719,62.8438 L150.6406,62.8438 L150.6406,54.7656 L148.1719,54.7656 Z "/><ellipse cx="177.75" cy="58.5" fill="#84BE84" rx="3" ry="3" style="stroke: #038048; stroke-width: 1.0;"/><text fill="#000000" font-family="sans-serif" font-size="12" font-style="italic" lengthAdjust="spacingAndGlyphs" textLength="84" x="183.75" y="63.1543">KitchenHatch</text><line style="stroke: #A80036; stroke-width: 1.5;" x1="96" x2="312" y1="75" y2="75"/><line style="stroke: #A80036; stroke-width: 1.5;" x1="96" x2="312" y1="83" y2="83"/><text fill="#000000" font-family="sans-serif" font-size="11" lengthAdjust="spacingAndGlyphs" textLength="109" x="101" y="97.2104">getMaxDishes(): int</text><text fill="#000000" font-family="sans-serif" font-size="11" lengthAdjust="spacingAndGlyphs" textLength="114" x="101" y="110.0151">getOrderCount(): int</text><text fill="#000000" font-family="sans-serif" font-size="11" lengthAdjust="spacingAndGlyphs" textLength="120" x="101" y="122.8198">getDishesCount(): int</text><text fill="#000000" font-family="sans-serif" font-size="11" lengthAdjust="spacingAndGlyphs" textLength="131" x="101" y="135.6245">dequeueOrder(): Order</text><text fill="#000000" font-family="sans-serif" font-size="11" lengthAdjust="spacingAndGlyphs" textLength="206" x="101" y="148.4292">dequeueOrder(timeout: long): Order</text><text fill="#000000" font-family="sans-serif" font-size="11" lengthAdjust="spacingAndGlyphs" textLength="115" x="101" y="161.2339">dequeueDish(): Dish</text><text fill="#000000" font-family="sans-serif" font-size="11" lengthAdjust="spacingAndGlyphs" textLength="190" x="101" y="174.0386">dequeueDish(timeout: long): Dish</text><text fill="#000000" font-family="sans-serif" font-size="11" lengthAdjust="spacingAndGlyphs" textLength="139" x="101" y="186.8433">enqueueDish(dish: Dish)</text><!--class KitchenHatchImpl--><rect fill="#FEFECE" filter="url(#f1ef3m4t1mu8rx)" height="60.8047" id="KitchenHatchImpl" style="stroke: #A80036; stroke-width: 1.5;" width="365" x="21.5" y="253"/><ellipse cx="140.25" cy="269" fill="#ADD1B2" rx="11" ry="11" style="stroke: #A80036; stroke-width: 1.0;"/><path d="M143.2188,274.6406 Q142.6406,274.9375 142,275.0859 Q141.3594,275.2344 140.6563,275.2344 Q138.1563,275.2344 136.8359,273.5859 Q135.5156,271.9375 135.5156,268.8125 Q135.5156,265.6875 136.8359,264.0313 Q138.1563,262.375 140.6563,262.375 Q141.3594,262.375 142.0078,262.5313 Q142.6563,262.6875 143.2188,262.9844 L143.2188,265.7031 Q142.5938,265.125 142,264.8516 Q141.4063,264.5781 140.7813,264.5781 Q139.4375,264.5781 138.75,265.6484 Q138.0625,266.7188 138.0625,268.8125 Q138.0625,270.9063 138.75,271.9766 Q139.4375,273.0469 140.7813,273.0469 Q141.4063,273.0469 142,272.7734 Q142.5938,272.5 143.2188,271.9219 L143.2188,274.6406 Z "/><ellipse cx="165.75" cy="268.5" fill="#84BE84" rx="3" ry="3" style="stroke: #038048; stroke-width: 1.0;"/><text fill="#000000" font-family="sans-serif" font-size="12" lengthAdjust="spacingAndGlyphs" textLength="108" x="171.75" y="273.1543">KitchenHatchImpl</text><line style="stroke: #A80036; stroke-width: 1.5;" x1="22.5" x2="385.5" y1="285" y2="285"/><line style="stroke: #A80036; stroke-width: 1.5;" x1="22.5" x2="385.5" y1="293" y2="293"/><ellipse cx="32.5" cy="304.9023" fill="#84BE84" rx="3" ry="3" style="stroke: #038048; stroke-width: 1.0;"/><text fill="#000000" font-family="sans-serif" font-size="11" lengthAdjust="spacingAndGlyphs" textLength="339" x="41.5" y="307.2104">KitchenHatchImpl(maxMeals: int, orders: Dequeue&lt;Order&gt;)</text><!--link KitchenHatch to KitchenHatchImpl--><path d="M204,213.2463 C204,227.4561 204,241.1626 204,252.6376 " fill="none" id="KitchenHatch-KitchenHatchImpl" style="stroke: #A80036; stroke-width: 1.0; stroke-dasharray: 7.0,7.0;"/><polygon fill="none" points="197.0001,213.0023,204,193.0023,211.0001,213.0023,197.0001,213.0023" style="stroke: #A80036; stroke-width: 1.0;"/><!--
@startuml KitchenHatch

package de.fhro.inf.prg3.a10.kitchen {
    +interface KitchenHatch {
        getMaxDishes(): int
        getOrderCount(): int
        getDishesCount(): int
        dequeueOrder(): Order
        dequeueOrder(timeout: long): Order
        dequeueDish(): Dish
        dequeueDish(timeout: long): Dish
        enqueueDish(dish: Dish)
    }

    +class KitchenHatchImpl implements KitchenHatch {
        +KitchenHatchImpl(maxMeals: int, orders: Dequeue<Order>)
    }
}

@enduml

PlantUML version 1.2017.19(Sun Nov 12 12:46:22 CET 2017)
(GPL source distribution)
Java Runtime: OpenJDK Runtime Environment
JVM: OpenJDK 64-Bit Server VM
Java Version: 1.8.0_144-b01
Operating System: Linux
OS Version: 4.14.4-1-ARCH
Default Encoding: UTF-8
Language: en
Country: US
--></g></svg>