<?xml version="1.0" encoding="UTF-8" standalone="no"?><svg xmlns="http://www.w3.org/2000/svg" xmlns:xlink="http://www.w3.org/1999/xlink" contentScriptType="application/ecmascript" contentStyleType="text/css" height="283px" preserveAspectRatio="none" style="width:574px;height:283px;" version="1.1" viewBox="0 0 574 283" width="574px" zoomAndPan="magnify"><defs><filter height="300%" id="f1iq7ozwl5k92n" width="300%" x="-1" y="-1"><feGaussianBlur result="blurOut" stdDeviation="2.0"/><feColorMatrix in="blurOut" result="blurOut2" type="matrix" values="0 0 0 0 0 0 0 0 0 0 0 0 0 0 0 0 0 0 .4 0"/><feOffset dx="4.0" dy="4.0" in="blurOut2" result="blurOut3"/><feBlend in="SourceGraphic" in2="blurOut3" mode="normal"/></filter></defs><g><!--cluster java.lang--><polygon fill="#FFFFFF" filter="url(#f1iq7ozwl5k92n)" points="229,16,304,16,311,38.2969,337,38.2969,337,112,229,112,229,16" style="stroke: #000000; stroke-width: 2.0;"/><line style="stroke: #000000; stroke-width: 2.0;" x1="229" x2="311" y1="38.2969" y2="38.2969"/><text fill="#000000" font-family="sans-serif" font-size="14" font-weight="bold" lengthAdjust="spacingAndGlyphs" textLength="69" x="233" y="30.9951">java.lang</text><!--cluster de.fhro.inf.prg3.a10.kitchen.workers--><polygon fill="#FFFFFF" filter="url(#f1iq7ozwl5k92n)" points="14,137,313,137,320,159.2969,552,159.2969,552,271,14,271,14,137" style="stroke: #000000; stroke-width: 2.0;"/><line style="stroke: #000000; stroke-width: 2.0;" x1="14" x2="320" y1="159.2969" y2="159.2969"/><text fill="#000000" font-family="sans-serif" font-size="14" font-weight="bold" lengthAdjust="spacingAndGlyphs" textLength="293" x="18" y="151.9951">de.fhro.inf.prg3.a10.kitchen.workers</text><!--class Runnable--><rect fill="#FEFECE" filter="url(#f1iq7ozwl5k92n)" height="60.8047" id="Runnable" style="stroke: #A80036; stroke-width: 1.5;" width="91" x="237.5" y="43"/><ellipse cx="252.5" cy="59" fill="#B4A7E5" rx="11" ry="11" style="stroke: #A80036; stroke-width: 1.0;"/><path d="M248.4219,54.7656 L248.4219,52.6094 L255.8125,52.6094 L255.8125,54.7656 L253.3438,54.7656 L253.3438,62.8438 L255.8125,62.8438 L255.8125,65 L248.4219,65 L248.4219,62.8438 L250.8906,62.8438 L250.8906,54.7656 L248.4219,54.7656 Z "/><text fill="#000000" font-family="sans-serif" font-size="12" font-style="italic" lengthAdjust="spacingAndGlyphs" textLength="59" x="266.5" y="63.1543">Runnable</text><line style="stroke: #A80036; stroke-width: 1.5;" x1="238.5" x2="327.5" y1="75" y2="75"/><line style="stroke: #A80036; stroke-width: 1.5;" x1="238.5" x2="327.5" y1="83" y2="83"/><text fill="#000000" font-family="sans-serif" font-size="11" lengthAdjust="spacingAndGlyphs" textLength="31" x="243.5" y="97.2104">run();</text><!--class Waiter--><rect fill="#FEFECE" filter="url(#f1iq7ozwl5k92n)" height="99.2188" id="Waiter" style="stroke: #A80036; stroke-width: 1.5;" width="522" x="22" y="164"/><ellipse cx="253.25" cy="180" fill="#ADD1B2" rx="11" ry="11" style="stroke: #A80036; stroke-width: 1.0;"/><path d="M256.2188,185.6406 Q255.6406,185.9375 255,186.0859 Q254.3594,186.2344 253.6563,186.2344 Q251.1563,186.2344 249.8359,184.5859 Q248.5156,182.9375 248.5156,179.8125 Q248.5156,176.6875 249.8359,175.0313 Q251.1563,173.375 253.6563,173.375 Q254.3594,173.375 255.0078,173.5313 Q255.6563,173.6875 256.2188,173.9844 L256.2188,176.7031 Q255.5938,176.125 255,175.8516 Q254.4063,175.5781 253.7813,175.5781 Q252.4375,175.5781 251.75,176.6484 Q251.0625,177.7188 251.0625,179.8125 Q251.0625,181.9063 251.75,182.9766 Q252.4375,184.0469 253.7813,184.0469 Q254.4063,184.0469 255,183.7734 Q255.5938,183.5 256.2188,182.9219 L256.2188,185.6406 Z "/><ellipse cx="278.75" cy="179.5" fill="#84BE84" rx="3" ry="3" style="stroke: #038048; stroke-width: 1.0;"/><text fill="#000000" font-family="sans-serif" font-size="12" lengthAdjust="spacingAndGlyphs" textLength="40" x="284.75" y="184.1543">Waiter</text><line style="stroke: #A80036; stroke-width: 1.5;" x1="23" x2="543" y1="196" y2="196"/><rect fill="none" height="6" style="stroke: #C82930; stroke-width: 1.0;" width="6" x="30" y="204.9023"/><text fill="#000000" font-family="sans-serif" font-size="11" lengthAdjust="spacingAndGlyphs" textLength="74" x="42" y="210.2104">name: String</text><rect fill="none" height="6" style="stroke: #C82930; stroke-width: 1.0;" width="6" x="30" y="217.707"/><text fill="#000000" font-family="sans-serif" font-size="11" lengthAdjust="spacingAndGlyphs" textLength="210" x="42" y="223.0151">progressReporter: ProgressReporter</text><rect fill="none" height="6" style="stroke: #C82930; stroke-width: 1.0;" width="6" x="30" y="230.5117"/><text fill="#000000" font-family="sans-serif" font-size="11" lengthAdjust="spacingAndGlyphs" textLength="153" x="42" y="235.8198">kitchenHatch: KitchenHatch</text><line style="stroke: #A80036; stroke-width: 1.5;" x1="23" x2="543" y1="242.4141" y2="242.4141"/><ellipse cx="33" cy="254.3164" fill="#84BE84" rx="3" ry="3" style="stroke: #038048; stroke-width: 1.0;"/><text fill="#000000" font-family="sans-serif" font-size="11" lengthAdjust="spacingAndGlyphs" textLength="496" x="42" y="256.6245">Waiter(name: String, kitchenHatch: KitchenHatch, progressReporter: ProgressReporter)</text><!--link Runnable to Waiter--><path d="M283,124.5882 C283,137.4009 283,151.1275 283,163.868 " fill="none" id="Runnable-Waiter" style="stroke: #A80036; stroke-width: 1.0; stroke-dasharray: 7.0,7.0;"/><polygon fill="none" points="276.0001,124.2236,283,104.2236,290.0001,124.2236,276.0001,124.2236" style="stroke: #A80036; stroke-width: 1.0;"/><!--
@startuml Waiter

package java.lang {
    interface Runnable {
        run();
    }
}

package de.fhro.inf.prg3.a10.kitchen.workers {

    +class Waiter implements Runnable {
        -name: String
        -progressReporter: ProgressReporter
        -kitchenHatch: KitchenHatch
        +Waiter(name: String, kitchenHatch: KitchenHatch, progressReporter: ProgressReporter)
    }
}

@enduml

PlantUML version 1.2017.19(Sun Nov 12 12:46:22 CET 2017)
(GPL source distribution)
Java Runtime: OpenJDK Runtime Environment
JVM: OpenJDK 64-Bit Server VM
Java Version: 1.8.0_144-b01
Operating System: Linux
OS Version: 4.14.4-1-ARCH
Default Encoding: UTF-8
Language: en
Country: US
--></g></svg>